# xmcd
#
# Track frame offsets: 
#        150
#        18682
#        35654
#        54125
#        75323
#        90913
#        108492
#        129553
#        148616
#        167600
#        189531
#
# Disc length: 2778 seconds
#
# Revision: 0
# Processed by: cddbd v1.5.2PL0 Copyright (c) Steve Scherf et al.
# Submitted via: ExactAudioCopyFreeDBPlugin 1.0
#
DISCID=840ad80b
DTITLE=Alison Joy Williams - Blonde Hair Blues
DYEAR=2009
DGENRE=Blues
TTITLE0=Listen Up Close
TTITLE1=Wish I Did
TTITLE2=Now You've Met Lonely
TTITLE3=Sweet Memories
TTITLE4=Something To Loose
TTITLE5=Daylight Lover
TTITLE6=I'm So Happy
TTITLE7=Everywhere But Here
TTITLE8=Witch Of The Bayou
TTITLE9=Blonde Hair Blues
TTITLE10=House Of The Rising Sun
EXTD=
EXTT0=
EXTT1=
EXTT2=
EXTT3=
EXTT4=
EXTT5=
EXTT6=
EXTT7=
EXTT8=
EXTT9=
EXTT10=
PLAYORDER=
